<svg xmlns="http://www.w3.org/2000/svg" width="22.395" height="26.44" viewBox="0 0 22.395 26.44"><g transform="translate(-0.5 -0.321)"><g transform="translate(2 1.821)"><g transform="translate(-2 -1.821)" fill="#fd9326" fill-rule="evenodd"><path d="M 11.69729423522949 26.0108585357666 C 10.84735488891602 26.0108585357666 10.01348400115967 25.77870750427246 9.285824775695801 25.33949851989746 L 3.505194425582886 21.85147857666016 C 2.114054441452026 21.01178741455078 1.249944448471069 19.48084831237793 1.250004410743713 17.85604858398438 L 1.250004410743713 9.22653865814209 C 1.250004410743713 7.601858139038086 2.114014387130737 6.070648193359375 3.504874467849731 5.230428218841553 L 4.642674446105957 4.543088436126709 L 4.642674446105957 4.544599533081055 L 9.285834312438965 1.742218255996704 C 10.0134744644165 1.30301821231842 10.84735488891602 1.070858240127563 11.69729423522949 1.070858240127563 C 12.54723453521729 1.070858240127563 13.38111400604248 1.30301821231842 14.10878467559814 1.742228269577026 L 19.88938522338867 5.230228424072266 C 21.28091430664062 6.070138454437256 22.1450252532959 7.60148811340332 22.14459419250488 9.226737976074219 L 22.14459419250488 17.8560791015625 C 22.14459419250488 19.48097801208496 21.28043365478516 21.01193809509277 19.88934516906738 21.85150909423828 L 14.10869407653809 25.33954811096191 C 13.38111400604248 25.77870750427246 12.54723453521729 26.0108585357666 11.69729423522949 26.0108585357666 Z" stroke="none"/><path d="M 11.69729614257812 1.820859909057617 C 10.9965124130249 1.820859909057617 10.295729637146 2.008684158325195 9.673384666442871 2.384328842163086 L 3.892675399780273 5.87327766418457 L 3.892675399780273 5.87238883972168 C 2.717784881591797 6.582138061523438 2.000003814697266 7.853448867797852 2.000003814697266 9.226537704467773 L 2.000003814697266 17.8560791015625 C 1.999954223632812 19.22819900512695 2.717964172363281 20.50027847290039 3.892675399780273 21.20932769775391 L 9.673384666442871 24.6973876953125 C 10.91807460784912 25.44867897033691 12.47651481628418 25.44867897033691 13.72121429443359 24.6973876953125 L 19.50180435180664 21.20939826965332 C 20.67655372619629 20.50038909912109 21.39459419250488 19.22832870483398 21.39459419250488 17.8560791015625 L 21.39459419250488 9.226537704467773 C 21.39495468139648 7.854097366333008 20.67690467834473 6.581598281860352 19.50191497802734 5.87238883972168 L 13.72121429443359 2.384328842163086 C 13.09886455535889 2.008684158325195 12.39807987213135 1.820859909057617 11.69729614257812 1.820859909057617 M 11.69729423522949 0.3208580017089844 C 12.68384456634521 0.3208580017089844 13.6517448425293 0.5903282165527344 14.49635410308838 1.100128173828125 L 20.27686500549316 4.588077545166016 C 21.89210510253906 5.563018798828125 22.89508438110352 7.340478897094727 22.89459419250488 9.2269287109375 L 22.89459419250488 17.8560791015625 C 22.89459419250488 19.74210739135742 21.89154434204102 21.51911926269531 20.27688407897949 22.49362945556641 L 14.49616432189941 25.98169898986816 C 13.65171432495117 26.49138832092285 12.68382453918457 26.7608585357666 11.69729423522949 26.7608585357666 C 10.71075439453125 26.7608585357666 9.742864608764648 26.49138832092285 8.89825439453125 25.98158836364746 L 3.117725372314453 22.49363708496094 C 1.502914428710938 21.51894760131836 0.4999351501464844 19.74195861816406 0.5000038146972656 17.85602951049805 L 0.5000038146972656 9.226537704467773 C 0.5000038146972656 7.340848922729492 1.502803802490234 5.563648223876953 3.117063522338867 4.588478088378906 L 5.392675399780273 3.213777542114258 L 5.392675399780273 3.215927124023438 L 8.898294448852539 1.100109100341797 C 9.742834091186523 0.5903282165527344 10.71073436737061 0.3208580017089844 11.69729423522949 0.3208580017089844 Z" stroke="none" fill="#fff"/></g><path d="M12.89,6.273V9.438a1.082,1.082,0,0,1-.52.924L9.422,12.145a1.08,1.08,0,0,1-1.179-.04L5.857,10.433a1.08,1.08,0,0,1,.055-1.8l5.333-3.276a1.08,1.08,0,0,1,1.645.92Z" transform="translate(-2.556 -1.821)" fill="#fff" fill-rule="evenodd" opacity="0.793"/></g></g></svg>